inDegrees=yes
name=ik_Xsens
DataType=double
version=3
OpenSimVersion=4.4-2022-07-23-0e9fedc
endheader
time	pelvis_tilt	pelvis_list	pelvis_rotation	pelvis_tx	pelvis_ty	pelvis_tz	hip_flexion_r	hip_adduction_r	hip_rotation_r	knee_angle_r	knee_angle_r_beta	ankle_angle_r	subtalar_angle_r	mtp_angle_r	hip_flexion_l	hip_adduction_l	hip_rotation_l	knee_angle_l	knee_angle_l_beta	ankle_angle_l	subtalar_angle_l	mtp_angle_l	lumbar_extension	lumbar_bending	lumbar_rotation	arm_flex_r	arm_add_r	arm_rot_r	elbow_flex_r	pro_sup_r	wrist_flex_r	wrist_dev_r	arm_flex_l	arm_add_l	arm_rot_l	elbow_flex_l	pro_sup_l	wrist_flex_l	wrist_dev_l
38.56666666666666	0	0	0	0	0.93	0	0	0	0	0	0	0	0	0	0	0	0	0	0	0	0	0	0	0	0	28.24891795028183	-30.60112322773893	-29.30084717891062	-308.3509352951261	-283.7057896189675	0	0	8.86213267527129	-20.25362547179461	-59.1071054606533	-383.2748155778272	-312.5650091885507	0	0
38.58333333333334	0	0	0	0	0.93	0	0	0	0	0	0	0	0	0	0	0	0	0	0	0	0	0	0	0	0	24.74287537933729	-28.57041800375001	-29.38466473526644	-303.7712405580697	-283.9260030162504	0	0	7.997628639649173	-19.32247609639683	-58.80217590499696	-383.5444774694477	-313.3616152765646	0	0
38.6	0	0	0	0	0.93	0	0	0	0	0	0	0	0	0	0	0	0	0	0	0	0	0	0	0	0	20.74212806821967	-25.09875554105824	-27.66284758585458	-296.4467424076935	-285.4060373195305	0	0	7.276162573956824	-18.37801645124682	-58.52365920156915	-383.1414835706523	-314.1792639815527	0	0
38.61666666666667	1.61169521122486e-27	5.012976127021587e-19	9.836802868201824e-27	-1.499134624247291e-26	0.93	-4.433542254457289e-25	-1.031041589617481e-31	-1.962330930862101e-25	0	0	-4.020379262185272e-16	1.167299314915319e-22	-5.328641922840048e-22	-3.054475264051559e-18	-1.859429003666902e-24	-3.167610849738656e-32	-1.519285474619071e-23	0	-4.017887448617625e-16	1.970831281046637e-22	-1.048559914962671e-18	-1.361140284915409e-20	7.464368147816583e-28	-1.193405392635051e-20	3.372417204844155e-24	17.4861061183459	-21.01293325109371	-25.09006177672466	-290.8865998732132	-284.9657466182196	2.271112142928319e-21	8.110610451757754e-20	6.536359002541965	-17.48023097979052	-58.17536337354804	-382.6717379510288	-315.3211404441365	-7.431168178886327e-23	4.396851746046821e-20
38.63333333333333	-1.632388287157295e-26	-1.143419971274515e-25	-5.019598658613503e-26	-1.690585527483592e-26	0.93	1.476827240221355e-25	-2.586273221513765e-34	2.590204776131564e-24	0	1.372889440469291e-15	2.396072681174723e-17	-4.856004761784675e-20	-2.015136526070989e-17	2.80233981081608e-25	2.736360432044252e-22	3.571399239375229e-29	2.04974149612486e-21	1.372872595269358e-15	2.396123162898423e-17	-4.184832501545957e-18	6.175233763834715e-25	-2.386390026544851e-26	3.779524288486618e-26	5.83898449992121e-18	-2.360689197102398e-24	16.24102829933244	-17.15288772604814	-22.46310378407275	-287.0793933629885	-282.870892957784	-1.170773088607122e-24	-5.149678656583276e-25	5.907689351820262	-16.51617977894236	-57.78586230596873	-381.7081747993286	-316.6104787743836	-2.804954829602359e-26	-1.94235394406963e-23
38.65	0	0	0	0	0.93	0	0	0	0	0	-3.081487911019577e-33	0	0	0	0	0	0	0	0	0	0	0	0	0	0	15.49692369533214	-13.65908523031416	-20.03388143327009	-282.759502018319	-279.9792772791424	0	0	5.401400407027285	-15.50006861776866	-57.32712966165931	-380.3372854683286	-317.8830427228326	0	0
38.66666666666666	2.273299678067646e-28	3.096388743147551e-23	1.30200373470595e-27	8.698453657510009e-25	0.93	-3.115236958266743e-24	-3.619082035476125e-29	8.886692552421289e-23	-2.031311278609206e-29	1.443196311943234e-15	2.518909917359492e-17	1.462204414637681e-21	-1.404433627064784e-21	-6.072640137787276e-22	-9.859145178687492e-23	3.577677956427375e-33	2.665963196197195e-28	1.446592453631506e-15	2.524778509350237e-17	1.211296341922275e-21	5.117070741247267e-21	-2.165195747960905e-21	6.66525228318444e-23	-8.533509213644025e-19	-1.753184408404172e-23	14.11385689426312	-9.220846742288906	-19.06757318985825	-279.6499601771308	-276.344829139701	-2.443577397224991e-22	-2.810498735593728e-21	5.011898920970886	-14.35235228644667	-56.76403600441395	-378.3151809030148	-319.0647940231572	-3.332821576121378e-22	2.969354118724641e-23
